<svg height="32" viewBox="0 0 245 240" width="32" xmlns="http://www.w3.org/2000/svg">
  <path d="M104.4 35.4c1.4 0 3 .1 4.8.4 6.5 1 13.4 3 20.5 6 4.5 1.8 9 4 13.5 6.6 4.4-2.5 9-4.8 13.5-6.6 7.1-3 14-5 20.5-6 1.8-.3 3.4-.4 4.8-.4 15.7 0 28.4 5.6 38.2 17.1 9.4 10.9 16.2 25.3 20.5 42.7 6.5 25.4 7 50.3 7 50.3s-23.8 7.9-48.7 10.7c-5.1 0-10 .5-14.7 1.5-10.3 2.1-20.4 5-29.4 10.4-8.6 5.2-16.6 12-23.4 20.3-7-8.3-14.8-15.1-23.4-20.3-9-5.4-19-8.3-29.4-10.4-4.7-1-9.6-1.5-14.7-1.5C23.8 164 0 156.1 0 156.1s.5-24.9 7-50.3c4.3-17.4 11.1-31.8 20.5-42.7 9.8-11.5 22.5-17.1 38.2-17.1zm74.3 90.6c7.4 0 13.5-6.6 13.5-14.7 0-8-6-14.7-13.5-14.7-7.4 0-13.5 6.6-13.5 14.7 0 8 6 14.7 13.5 14.7zm-78 0c7.4 0 13.5-6.6 13.5-14.7 0-8-6-14.7-13.5-14.7-7.4 0-13.5 6.6-13.5 14.7 0 8 6 14.7 13.5 14.7z" fill="#5865F2"/>
</svg>
